# xmcd CD database file
#
# Track frame offsets:
#	180
#	13132
#	25224
#	39610
#	52756
#	66047
#	75846
#	88355
#	100848
#	114356
#	130566
#	146574
#	174500
#	194305
#	209090
#	220018
#
# Disc length: 3109 seconds
#
# Revision: 0
# Processed by: cddbd v1.5.2PL0 Copyright (c) Steve Scherf et al.
# Submitted via: CDex 1.51
#
DISCID=d50c2310
DTITLE=Various Artist - Golden Hits Off Jazz
DYEAR=1900
DGENRE=Jazz
TTITLE0=The Ames Brothers - Blue Prelude
TTITLE1=Johnnie Ray - Faith Can Move Mountains
TTITLE2=Perry Como - I Concentrate On You
TTITLE3=The Helltoppers - Love Walked In
TTITLE4=June Christy - My Heart Belongs To Only You
TTITLE5=Georgia Gibbs - Seven Lonely Days
TTITLE6=Guy Mitchell - The Roving Kid
TTITLE7=Perry Como - Wild Horses
TTITLE8=Louis Jordan - Ain't That Just Like A Woman
TTITLE9=Ben Webster - Danny Boy
TTITLE10=Coleman Hawkins - Honeysluckle Rose
TTITLE11=Louis Armstrong - Muskrat Rumble
TTITLE12=Artie Shaw And His Orchestra - Summertime
TTITLE13=Ella Fitzgerald - My Happines
TTITLE14=Andrew Sisters - Oh Ma-Ma
TTITLE15=Judy Garland - Our Love Affair
EXTD=
EXTT0=
EXTT1=
EXTT2=
EXTT3=
EXTT4=
EXTT5=
EXTT6=
EXTT7=
EXTT8=
EXTT9=
EXTT10=
EXTT11=
EXTT12=
EXTT13=
EXTT14=
EXTT15=
PLAYORDER=
